<svg width="147" height="28" viewBox="0 0 147 28" fill="none" xmlns="http://www.w3.org/2000/svg">
<g clip-path="url(#clip0_2502_18375)">
<mask id="mask0_2502_18375" style="mask-type:luminance" maskUnits="userSpaceOnUse" x="-1" y="-1" width="148" height="30">
<path d="M146.99 -0.5H-0.00976562V28.5H146.99V-0.5Z" fill="white"/>
</mask>
<g mask="url(#mask0_2502_18375)">
<mask id="mask1_2502_18375" style="mask-type:luminance" maskUnits="userSpaceOnUse" x="-1" y="-1" width="148" height="29">
<path d="M146.99 -0.258789H-0.00976562V27.7412H146.99V-0.258789Z" fill="white"/>
</mask>
<g mask="url(#mask1_2502_18375)">
<path d="M4.78323 21.7658H8.48523V7.26078H13.3282V3.76178H-0.00976562V7.26178H4.78323V21.7658ZM13.3332 21.7658H16.8072V15.7058C16.8072 13.6008 17.8972 12.3328 19.5472 12.3328C20.1292 12.3328 20.5862 12.4338 21.1182 12.6118V9.08678C20.7395 8.97726 20.3463 8.92601 19.9522 8.93478C18.5322 8.93478 17.2392 9.87279 16.8072 11.1148V9.08778H13.3332V21.7658ZM27.7862 22.0448C29.5362 22.0448 30.8542 21.1568 31.4382 20.3448V21.7648H34.9122V9.08778H31.4382V10.5078C30.8542 9.69679 29.5362 8.80878 27.7862 8.80878C24.4142 8.80878 21.8272 11.8518 21.8272 15.4268C21.8272 19.0028 24.4142 22.0458 27.7872 22.0458L27.7862 22.0448ZM28.5222 18.8748C26.5942 18.8748 25.3262 17.4298 25.3262 15.4268C25.3262 13.4228 26.5942 11.9768 28.5222 11.9768C30.4492 11.9768 31.7172 13.4228 31.7172 15.4268C31.7172 17.4298 30.4492 18.8748 28.5222 18.8748ZM43.1832 22.0448C44.9332 22.0448 46.2512 21.1568 46.8342 20.3448V21.7648H50.3082V2.74878H46.8342V10.5088C46.2512 9.69679 44.9332 8.80878 43.1832 8.80878C39.8102 8.80878 37.2232 11.8518 37.2232 15.4268C37.2232 19.0028 39.8102 22.0448 43.1832 22.0448ZM43.9182 18.8748C41.9912 18.8748 40.7232 17.4298 40.7232 15.4268C40.7232 13.4228 41.9912 11.9768 43.9182 11.9768C45.8452 11.9768 47.1132 13.4228 47.1132 15.4268C47.1132 17.4298 45.8452 18.8748 43.9182 18.8748ZM55.1562 7.15378C55.4478 7.15628 55.7371 7.10112 56.0073 6.99147C56.2775 6.88182 56.5234 6.71983 56.7308 6.51483C56.9383 6.30982 57.1031 6.06584 57.2159 5.79691C57.3287 5.52798 57.3873 5.23941 57.3882 4.94778C57.3873 4.65615 57.3287 4.36757 57.2159 4.09864C57.1031 3.82971 56.9383 3.58573 56.7308 3.38073C56.5234 3.17572 56.2775 3.01374 56.0073 2.90409C55.7371 2.79443 55.4478 2.73927 55.1562 2.74178C54.5726 2.74648 54.0142 2.98041 53.6015 3.3931C53.1888 3.80579 52.9549 4.36417 52.9502 4.94778C52.9549 5.53139 53.1888 6.08977 53.6015 6.50246C54.0142 6.91515 54.5726 7.14907 55.1562 7.15378ZM53.4322 21.7658H56.9062V9.23178H53.4322V21.7658ZM59.9882 21.7658H63.4622V15.5788C63.4622 13.1438 64.6542 11.9778 66.2772 11.9778C67.7222 11.9778 68.5092 13.0938 68.5092 14.9188V21.7658H71.9832V14.3358C71.9832 11.0398 70.1572 8.80778 67.0892 8.80778C65.4402 8.80778 64.1472 9.51779 63.4622 10.5318V9.08678H59.9882V21.7658ZM80.8232 18.3918C79.0732 18.3918 77.6032 17.0728 77.6032 15.1458C77.6032 13.1938 79.0732 11.8998 80.8232 11.8998C82.5732 11.8998 84.0432 13.1938 84.0432 15.1458C84.0432 17.0728 82.5732 18.3918 80.8232 18.3918ZM80.4172 27.2418C84.2972 27.2418 87.2392 25.2638 87.2392 20.6988V9.00978H83.7652V10.4298C83.0802 9.44178 81.7102 8.73178 80.0882 8.73178C76.7662 8.73178 74.1032 11.5718 74.1032 15.1468C74.1032 18.6968 76.7662 21.5368 80.0882 21.5368C81.7112 21.5368 83.0802 20.8018 83.7652 19.8638V20.7258C83.7652 22.7548 82.4212 24.1998 80.3672 24.1998C78.9472 24.1998 77.5272 23.7178 76.4112 22.6278L74.5092 25.2138C75.9542 26.6088 78.2112 27.2418 80.4172 27.2418ZM94.5842 21.7658H97.8542L105.31 3.76178H101.253L96.2322 16.2628L91.1352 3.76178H87.1542L94.5842 21.7658ZM108.498 7.00778C108.79 7.01015 109.079 6.95489 109.349 6.84518C109.619 6.73547 109.865 6.57346 110.072 6.36847C110.279 6.16348 110.444 5.91954 110.557 5.65068C110.67 5.38182 110.728 5.09332 110.729 4.80178C110.728 4.51023 110.67 4.22174 110.557 3.95287C110.444 3.68401 110.279 3.44008 110.072 3.23509C109.865 3.03009 109.619 2.86809 109.349 2.75838C109.079 2.64866 108.79 2.59341 108.498 2.59578C107.306 2.59578 106.291 3.58378 106.291 4.80178C106.291 6.01878 107.306 7.00778 108.498 7.00778ZM106.773 21.7658H110.247V9.08678H106.773V21.7658ZM119.238 22.0448C121.9 22.0448 123.929 20.9288 125.121 19.2048L122.534 17.2778C121.951 18.1648 120.861 18.8748 119.263 18.8748C117.59 18.8748 116.094 17.9368 115.891 16.2378H125.374C125.45 15.7048 125.425 15.3498 125.425 15.0458C125.425 10.9128 122.509 8.80778 119.187 8.80778C115.333 8.80778 112.518 11.6728 112.518 15.4258C112.518 19.4328 115.46 22.0448 119.238 22.0448ZM116.017 13.8798C116.347 12.3328 117.792 11.6728 119.086 11.6728C120.379 11.6728 121.647 12.3578 121.951 13.8798H116.017ZM138.44 21.7658H141.889L146.073 9.08678H142.345L139.962 17.2008L137.375 9.08678H134.713L132.152 17.2008L129.743 9.08678H126.04L130.25 21.7658H133.698L136.057 14.5638L138.44 21.7658Z" fill="white"/>
</g>
</g>
</g>
<defs>
<clipPath id="clip0_2502_18375">
<rect width="147" height="28" fill="white"/>
</clipPath>
</defs>
</svg>
